<svg width="210" height="148" viewBox="0 0 210 148" preserveAspectRatio="none" fill="none" xmlns="http://www.w3.org/2000/svg">
<path d="M207.941 145.953L162.896 126.03L162.688 125.937L162.482 126.034C145.778 133.867 125.448 138.469 103.502 138.469C75.0066 138.469 49.2311 130.715 30.5939 118.203C11.9535 105.689 0.5 88.4553 0.5 69.4847C0.5 50.5141 11.9527 33.2801 30.5926 20.7663C49.2294 8.25467 75.0049 0.5 103.502 0.5C131.999 0.5 157.775 8.25468 176.413 20.7668C195.054 33.281 206.507 50.5158 206.507 69.4882C206.507 85.5512 198.297 100.367 184.46 112.131L184.111 112.428L184.376 112.801L207.941 145.953Z" fill="white" stroke="black"/>
</svg>
