<svg width="265" height="193" viewBox="0 0 265 193" fill="none" xmlns="http://www.w3.org/2000/svg">
<path d="M1.4697 190.95L28.1622 146.468L28.4366 146.011L27.9627 145.766C26.0419 144.776 24.3769 143.584 23.1561 141.906L23.1559 141.905C20.9274 138.846 20.1413 134.742 19.6091 130.419C19.5044 129.569 19.4096 128.709 19.3147 127.849C18.9331 124.389 18.5504 120.919 17.5199 118.012C16.4722 115.054 14.7138 112.245 12.9897 109.491C12.4964 108.703 12.0059 107.919 11.5357 107.138C9.39861 103.587 7.65359 100.052 7.65359 96.1519C7.65359 92.2517 9.39861 88.717 11.5357 85.1662C12.0059 84.3848 12.4964 83.6012 12.9897 82.8131C14.7138 80.0586 16.4722 77.2494 17.52 74.292C18.5504 71.3848 18.9331 67.9146 19.3147 64.4548C19.4096 63.5945 19.5044 62.7348 19.6091 61.8846C20.1413 57.5617 20.9274 53.4574 23.1559 50.3984C25.1671 47.6383 28.3632 46.199 31.892 44.8158C32.2527 44.6744 32.6169 44.5336 32.9832 44.392C36.1541 43.1663 39.4881 41.8776 42.1254 39.5901L42.1255 39.59C44.5018 37.5277 46.3564 34.318 48.1915 31.142C48.435 30.7205 48.6782 30.2996 48.9222 29.8821C51.0383 26.2613 53.2236 22.8737 56.2488 21.0905L56.2489 21.0904C59.0216 19.4549 62.4756 19.4711 66.2023 19.6056C66.4285 19.6138 66.6558 19.6224 66.8838 19.631C70.35 19.7623 74.0029 19.9006 77.2234 18.6155C78.8503 17.9664 80.3733 16.8965 81.8362 15.6566C83.0655 14.6149 84.2731 13.4345 85.4728 12.262C85.6995 12.0404 85.9259 11.8191 86.1521 11.5991C89.0328 8.79733 91.8763 6.21575 95.1226 5.40761C98.1868 4.64515 101.563 5.65575 105.16 6.83404C105.343 6.89383 105.526 6.95404 105.71 7.01443C109.078 8.1223 112.618 9.2863 116.005 8.88402L116.005 8.884C117.734 8.67803 119.432 8.02812 121.095 7.19259C122.54 6.46726 123.984 5.58837 125.414 4.71842C125.629 4.58755 125.843 4.45687 126.058 4.32695C129.377 2.31518 132.593 0.5 135.873 0.5C139.153 0.5 142.37 2.31521 145.69 4.32698C145.905 4.45694 146.12 4.58765 146.335 4.71856C147.765 5.58847 149.209 6.46731 150.654 7.19261C152.318 8.02811 154.016 8.678 155.744 8.88399C159.134 9.28877 162.676 8.12406 166.047 7.0156C166.228 6.95596 166.409 6.89649 166.59 6.83743C170.187 5.65911 173.563 4.64736 176.628 5.40767L1.4697 190.95ZM1.4697 190.95L48.3808 162.513L48.8144 162.25L49.0712 162.687C51.1392 166.208 53.292 169.479 56.2413 171.218L56.2416 171.218C59.0141 172.856 62.468 172.839 66.1941 172.704C66.4213 172.696 66.6496 172.687 66.8786 172.679C70.3432 172.547 73.9941 172.408 77.2119 173.693C77.212 173.693 77.212 173.693 77.2121 173.693L77.0267 174.157M1.4697 190.95L105.149 185.471C105.329 185.412 105.51 185.352 105.692 185.293C109.062 184.184 112.604 183.02 115.994 183.424M77.0267 174.157C79.8886 175.299 82.4813 177.833 85.1087 180.401C88.1911 183.413 91.3213 186.472 94.9904 187.386M77.0267 174.157C73.9115 172.913 70.3627 173.047 66.87 173.179C62.9384 173.328 59.0779 173.474 55.9873 171.649L77.0267 174.157ZM94.9904 187.386L95.1109 186.901C95.111 186.901 95.1111 186.901 95.1112 186.901L94.9904 187.386ZM94.9904 187.386C98.3706 188.225 102.068 187.01 105.811 185.78C109.217 184.661 112.659 183.53 115.935 183.921M115.935 183.921L115.994 183.424M115.935 183.921L115.994 183.424C115.994 183.424 115.994 183.424 115.994 183.424M115.935 183.921C119.013 184.288 122.064 186.143 125.142 188.016C128.652 190.151 132.198 192.308 135.866 192.308C139.533 192.308 143.078 190.151 146.586 188.016C149.664 186.143 152.714 184.288 155.792 183.921C159.066 183.532 162.506 184.662 165.909 185.781C169.654 187.012 173.355 188.227 176.737 187.386C180.406 186.472 183.536 183.413 186.619 180.401C189.246 177.833 191.839 175.299 194.701 174.157C197.819 172.913 201.37 173.047 204.864 173.178C208.795 173.326 212.654 173.471 215.744 171.649C219.265 169.573 221.651 165.446 223.981 161.416C225.824 158.227 227.633 155.099 229.941 153.096C232.508 150.869 235.757 149.613 238.939 148.382C242.851 146.868 246.663 145.394 248.987 142.204C251.764 138.393 252.352 133.067 252.925 127.878C253.306 124.424 253.681 121.03 254.69 118.183C255.718 115.283 257.436 112.537 259.155 109.791C261.869 105.453 264.585 101.112 264.585 96.1564C264.585 91.2041 261.873 86.8667 259.163 82.5312C257.443 79.7805 255.723 77.0306 254.698 74.125M115.994 183.424L252.432 64.4547C252.337 63.5944 252.242 62.7348 252.137 61.8846C251.605 57.5617 250.819 53.4574 248.59 50.3984M254.698 74.125L254.226 74.2921C254.226 74.292 254.226 74.2919 254.226 74.2918C254.226 74.2917 254.226 74.2916 254.226 74.2915L254.698 74.125ZM254.698 74.125C253.689 71.2781 253.314 67.8843 252.932 64.4303C252.359 59.2408 251.771 53.9154 248.994 50.104M248.994 50.104L248.59 50.3985C248.59 50.3984 248.59 50.3984 248.59 50.3984M248.994 50.104C246.671 46.9159 242.861 45.4425 238.951 43.9304C235.767 42.699 232.517 41.442 229.949 39.2124L248.59 50.3984M248.994 50.104L248.59 50.3984M194.527 18.6155C192.9 17.9664 191.377 16.8964 189.914 15.6566C188.685 14.6149 187.477 13.4347 186.277 12.2622C186.051 12.0405 185.824 11.8192 185.598 11.5991C182.717 8.79744 179.874 6.21594 176.628 5.4077L194.527 18.6155Z" fill="white" stroke="black"/>
</svg>
