<?xml version="1.0" encoding="utf-8"?>
<!-- Generator: Adobe Illustrator 26.0.1, SVG Export Plug-In . SVG Version: 6.00 Build 0)  -->
<svg version="1.1" id="레이어_1" xmlns="http://www.w3.org/2000/svg" xmlns:xlink="http://www.w3.org/1999/xlink" x="0px"
	 y="0px" viewBox="0 0 698.91 428.35" preserveAspectRatio="none" style="enable-background:new 0 0 698.91 428.35;" xml:space="preserve">
<style type="text/css">
	.st0{fill:#FFFFFF;}
	.st1{fill:#FFFFFF;stroke:#231815;stroke-miterlimit:10;}
	.st2{fill:#00682A;}
	.st3{fill:#097C3C;}
	.st4{fill:#005121;}
	.st5{fill:#222222;}
</style>
<path class="st1" d="M697.31,426.98l-73.03-102.42c5.16-2.24,9.74-4.98,13.12-8.89c12.18-14.07,8.37-37.45,15.02-53.24
	c6.98-16.58,26.06-30.88,26.06-48.82c0-17.94-19.08-32.24-26.06-48.82c-6.65-15.79-2.84-39.17-15.02-53.24
	c-11.1-12.82-35.09-13.14-50.16-24.14c-13.76-10.05-20.78-32.88-37.39-41.12c-15.37-7.63-37.97,0.3-55.42-5.56
	c-16.38-5.5-29.41-25.57-47.31-29.32c-17-3.56-37.05,9.49-55.16,7.68C374.62,17.35,357.62,0.5,339.49,0.5
	c-18.14,0-35.14,16.85-52.49,18.59c-18.11,1.82-38.16-11.23-55.16-7.68c-17.9,3.75-30.93,23.82-47.31,29.32
	c-17.44,5.86-40.04-2.08-55.41,5.56c-16.6,8.24-23.63,31.08-37.39,41.12c-15.07,11.01-39.06,11.32-50.16,24.14
	c-12.18,14.07-8.37,37.45-15.02,53.24C19.58,181.38,0.5,195.68,0.5,213.62c0,17.94,19.08,32.24,26.06,48.82
	c6.65,15.79,2.84,39.17,15.02,53.24c11.1,12.82,35.09,13.14,50.16,24.14c13.76,10.05,20.78,32.88,37.39,41.12
	c15.37,7.63,37.97-0.3,55.42,5.56c16.38,5.5,29.41,25.57,47.31,29.32c17,3.56,37.05-9.49,55.16-7.68
	c17.35,1.74,34.35,18.59,52.48,18.59c18.14,0,35.14-16.85,52.49-18.59c18.11-1.82,38.16,11.23,55.16,7.68
	c17.9-3.75,30.93-23.82,47.31-29.32c17.44-5.86,40.04,2.08,55.41-5.56c8.1-4.02,13.92-11.52,19.35-19.3L697.31,426.98z"/>
</svg>
