<svg width="312" height="232" viewBox="0 0 312 232" fill="none" xmlns="http://www.w3.org/2000/svg">
<path d="M92.3452 0.513246L92.3372 0.51312C55.3406 -0.073903 25.2083 19.106 10.4107 44.3866C-4.37903 69.6539 -3.85049 100.995 20.4333 124.871L20.4386 124.876C24.1844 128.673 28.1722 132.825 32.3792 137.206C43.4154 148.697 55.9606 161.759 69.6062 174.11L69.9019 174.378L69.7066 174.726L38.8778 229.638L95.8409 195.848L96.1206 195.682L96.3857 195.87C109.427 205.141 123.088 212.729 137.072 217.084C143.28 219.012 149.548 220.309 155.856 220.831C162.164 220.309 168.432 219.017 174.639 217.084C197.593 209.939 219.658 194.09 239.547 176.405C254.178 163.394 267.6 149.42 279.32 137.218C283.532 132.833 287.524 128.676 291.273 124.876L291.278 124.871C315.562 100.995 316.092 69.6539 301.303 44.3866C286.506 19.106 256.375 -0.073903 219.379 0.51312V0.513183H219.371C194.755 0.513183 172.456 8.71939 156.176 21.9962L155.86 22.2539L155.544 21.9962C139.255 8.71413 116.956 0.513183 92.3452 0.513246Z" fill="white" stroke="black"/>
</svg>
