<svg width="432" height="244" viewBox="0 0 432 244" preserveAspectRatio="none" fill="none" xmlns="http://www.w3.org/2000/svg">
<path d="M397.702 208.935C396.933 209.252 396.15 209.567 395.342 209.84L395.341 209.841C395.237 209.876 395.032 209.94 394.779 210.018C394.69 210.045 394.595 210.075 394.497 210.105L394.458 210.116L394.418 210.122C394.198 210.152 393.617 210.271 393.005 210.397C392.418 210.518 391.796 210.646 391.548 210.68L391.547 210.68C390.487 210.819 389.432 210.892 388.391 210.964C388.256 210.974 388.121 210.983 387.987 210.992L387.961 210.994L387.936 210.993C387.606 210.983 387.227 210.977 387.024 210.959C385.795 210.87 384.566 210.73 383.346 210.534L383.346 210.534C383.177 210.507 382.951 210.452 382.735 210.4L382.696 210.391C382.456 210.333 382.219 210.276 382.017 210.24L381.985 210.235L381.954 210.225C381.13 209.966 380.294 209.702 379.472 209.38C379.133 209.249 378.797 209.105 378.475 208.966C378.422 208.944 378.369 208.921 378.316 208.898L378.275 208.881L378.238 208.857C377.904 208.637 377.55 208.417 377.19 208.193C376.548 207.794 375.886 207.383 375.278 206.937C374.968 206.711 374.648 206.459 374.338 206.214C374.113 206.036 373.892 205.862 373.685 205.706L373.657 205.684L373.631 205.659L373.345 205.37C371.256 203.264 369.168 201.159 367.135 198.999L367.499 198.656L367.135 198.999C360.271 191.701 352.593 185.2 343.553 180.405L343.033 180.129L343.389 179.661C353.968 165.735 359.862 150.25 359.862 133.938C359.862 93.0791 322.884 57.3236 267.857 38.5768L267.692 38.5206L267.598 38.3739L250.416 11.6382C243.585 1.01427 228.341 -2.66886 216.418 3.50389L216.417 3.50396L180.419 22.1251L180.189 22.2439L179.96 22.125L143.945 3.4929C132.022 -2.67453 116.777 1.00337 109.946 11.6272L92.7649 38.3628L92.6706 38.5095L92.5056 38.5658C37.4783 57.3181 0.5 93.0735 0.5 133.932C0.5 163.996 20.5079 191.295 53.0308 211.105C85.5449 230.91 130.495 243.176 180.173 243.176C236.782 243.176 287.233 227.245 320.159 202.389L320.347 202.247L320.576 202.301C320.88 202.374 321.18 202.442 321.354 202.503C322.495 202.893 323.611 203.322 324.715 203.779L324.717 203.779C325.29 204.019 325.857 204.27 326.421 204.525L326.466 204.546L326.507 204.575C327.495 205.286 328.593 205.912 329.722 206.555L329.753 206.573C330.864 207.205 332.003 207.853 333.042 208.595C333.891 209.196 334.701 209.827 335.502 210.458L335.566 210.425C335.573 210.438 335.58 210.451 335.586 210.463C335.599 210.486 335.616 210.511 335.636 210.54C335.649 210.56 335.664 210.581 335.681 210.603C335.764 210.668 335.848 210.734 335.931 210.799L335.951 210.814C336.045 210.888 336.138 210.96 336.229 211.032C336.514 211.251 336.729 211.454 336.858 211.636C337.025 211.766 337.187 211.899 337.321 212.028L337.322 212.029C339.241 213.882 341.073 215.797 342.896 217.703C343.331 218.157 343.765 218.611 344.2 219.064C346.461 221.417 348.743 223.735 351.215 225.911C361.794 235.21 374.853 239.507 389.64 239.431C404.605 239.348 418.408 233 428.244 223.155C431.002 220.393 431.914 216.454 431.277 212.656C430.641 208.856 428.462 205.253 425.119 203.191L424.838 203.018C417.556 198.695 409.228 199.917 403.298 205.269L403.282 205.284L403.264 205.297C403.111 205.413 402.946 205.563 402.766 205.728L402.729 205.762C402.57 205.909 402.394 206.071 402.233 206.194M397.702 208.935L401.928 205.798M397.702 208.935L397.813 209.077C397.827 209.066 397.84 209.055 397.854 209.045C398.071 208.88 398.362 208.727 398.683 208.558C398.755 208.52 398.829 208.481 398.904 208.441C398.945 208.425 398.983 208.409 399.015 208.396L399.019 208.394C399.063 208.376 399.097 208.361 399.13 208.349L399.141 208.345C399.464 208.215 399.727 208.065 399.915 207.925C400.006 207.857 400.095 207.78 400.164 207.697C400.182 207.675 400.202 207.649 400.223 207.617M397.702 208.935L399.819 207.284M402.233 206.194C402.233 206.195 402.233 206.195 402.232 206.195L401.928 205.798M402.233 206.194C402.234 206.194 402.234 206.194 402.234 206.194L401.928 205.798M402.233 206.194C401.582 206.699 400.904 207.166 400.223 207.617M401.928 205.798C401.251 206.323 400.54 206.809 399.819 207.284M400.223 207.617C400.241 207.588 400.259 207.555 400.275 207.519C400.302 207.455 400.362 207.283 400.279 207.088L399.819 207.284M400.223 207.617C400.18 207.645 400.137 207.674 400.094 207.702L399.819 207.284" fill="white" stroke="black"/>
</svg>
