<svg width="722" height="410" viewBox="0 0 722 410" fill="none" xmlns="http://www.w3.org/2000/svg">
<path d="M405.488 82.5374L507.514 17.8641L485.94 101.32L485.727 102.142L486.549 101.929L628.393 65.1715L545.587 136.37L544.537 137.273L545.922 137.249L702.775 134.525L573.211 181.467L571.581 182.057L573.275 182.425L718.294 213.961L564.043 228.696L562.442 228.849L563.848 229.631L672.384 289.987L519.703 269.848L518.29 269.662L519.277 270.69L650.935 407.85L447.963 297.831L447.326 297.486L447.229 298.204L435.831 382.465L361.12 307.792L360.767 307.439L360.413 307.792L285.711 382.465L274.313 298.204L274.226 297.56L273.626 297.809L148.896 349.633L202.31 270.624L202.933 269.703L201.831 269.848L49.1497 289.987L157.686 229.631L159.092 228.849L157.49 228.696L3.23964 213.961L148.258 182.425L149.952 182.057L148.323 181.467L18.7584 134.525L175.62 137.249L177.005 137.273L175.955 136.37L93.149 65.1716L234.984 101.929L235.807 102.142L235.594 101.32L214.02 17.864L316.054 82.5374L316.507 82.8242L316.762 82.3531L360.767 1.05034L404.78 82.3531L405.035 82.8242L405.488 82.5374Z" fill="white" stroke="black"/>
</svg>
