<svg xmlns="http://www.w3.org/2000/svg" xmlns:xlink="http://www.w3.org/1999/xlink" version="1.1" id="레이어_1" x="0px" y="0px" viewBox="0 0 633.93 411.36" style="enable-background:new 0 0 633.93 411.36;" xml:space="preserve">
<style type="text/css">
	.st0{fill:#FFFFFF;stroke:#231815;stroke-miterlimit:10;}
</style>
<polygon class="st0" points="316.96,22.52 367.03,0.58 404.19,31.48 462.26,20.64 482.87,57.48 543.27,58.81 545.32,97.96   602.13,111.33 585.41,148.98 633.07,173.07 599.23,205.54 633.07,238 585.41,262.09 602.13,299.74 545.32,313.11 601.22,410.22   482.87,353.6 462.26,390.43 404.19,379.59 367.03,410.49 316.96,388.55 266.9,410.49 229.74,379.59 171.66,390.43 151.05,353.6   90.65,352.27 88.61,313.11 31.8,299.74 48.51,262.09 0.86,238 34.7,205.54 0.86,173.07 48.51,148.98 31.8,111.33 88.61,97.96   90.65,58.81 151.05,57.48 171.66,20.64 229.74,31.48 266.9,0.58 "/>
</svg>