<?xml version="1.0" encoding="UTF-8"?><svg id="_이어_2" xmlns="http://www.w3.org/2000/svg" viewBox="0 0 350.2 427.48"><defs><style>.cls-1{fill:#d3401e;stroke:#fff;stroke-miterlimit:10;}</style></defs><g id="_이어_1_사본"><path class="cls-1" d="M349.7,.5H.5V21.76c13.02,3.87,25.54,14.11,38.26,15.39,16.43,1.64,34.62-10.2,50.04-6.97,16.24,3.4,28.06,21.61,42.92,26.6,15.83,5.32,36.34-1.88,50.28,5.04,15.07,7.48,21.44,28.19,33.92,37.31,13.67,9.98,35.44,10.27,45.51,21.9,11.05,12.77,7.59,33.98,13.63,48.3,6.33,15.04,23.64,28.02,23.64,44.29s-17.31,29.25-23.64,44.29c-6.03,14.33-2.58,35.54-13.63,48.3-3.07,3.55-7.22,6.03-11.9,8.07l-24.46,13.74-25.5,19.9c-4.93,7.06-10.21,13.86-17.56,17.51-13.94,6.93-34.45-.27-50.27,5.04-14.86,4.99-26.68,23.2-42.92,26.6-15.42,3.22-33.61-8.62-50.04-6.97-12.73,1.28-25.26,11.52-38.29,15.39v21.48H349.7V.5Z"/></g></svg>