<?xml version="1.0" encoding="UTF-8"?><svg id="_이어_2" xmlns="http://www.w3.org/2000/svg" viewBox="0 0 331.6 427.48"><defs><style>.cls-1{fill:#d3401e;stroke:#fff;stroke-miterlimit:10;}</style></defs><g id="_이어_1_사본_2"><path class="cls-1" d="M292.76,390.11c-16.43-1.64-34.62,10.2-50.04,6.97-16.24-3.4-28.06-21.61-42.92-26.6-15.83-5.32-36.34,1.88-50.28-5.04-15.07-7.48-21.44-28.19-33.92-37.31-13.67-9.98-35.44-10.27-45.51-21.9-11.05-12.77-7.59-33.98-13.63-48.3-6.33-15.04-23.64-28.02-23.64-44.29s17.31-29.25,23.63-44.3c6.03-14.33,2.58-35.54,13.63-48.3,10.07-11.63,31.84-11.91,45.51-21.9,12.48-9.11,18.86-29.83,33.92-37.31,13.94-6.93,34.45,.27,50.27-5.04,14.86-4.99,26.68-23.2,42.92-26.6,15.42-3.22,33.61,8.62,50.04,6.97,12.76-1.28,25.3-11.56,38.36-15.41V.5H.5V426.98H331.1v-21.46c-13.05-3.86-25.59-14.13-38.34-15.41Z"/></g></svg>