<?xml version="1.0" encoding="UTF-8"?><svg id="_이어_2" xmlns="http://www.w3.org/2000/svg" viewBox="0 0 171.44 44.28"><defs><style>.cls-1{fill:#005121;}.cls-2{fill:#097c3c;}</style></defs><g id="_이어_1-2"><g><g><path class="cls-1" d="M11.24,30.24C4.29,27.71,.57,24.59,.57,18.48c0-4.93,2.61-6.95,12.77-4.47,10.24,2.5,12.81,4.34,12.81,7.76,0,2.66-1.56,3.91-3.63,3.63-3.08-.42-4.59-2.5-7.55-3.16-1.14-.25-1.69,.07-1.69,.95,0,1.01,1.2,1.77,2.99,2.28,6.46,1.84,10.33,3.47,10.33,9.41s-3.58,9.19-13.91,6.58C3.08,39.04,0,34.85,0,31.1c0-2.4,1.43-3.4,3.96-2.46,3.37,1.25,5.02,3.9,8.18,4.72,.97,.25,1.73,.05,1.73-.88,.02-.97-.75-1.55-2.63-2.24Z"/><path class="cls-1" d="M39.9,34.91c0,1.39,1.69,2.42,1.69,4.49,0,2.82-1.22,4.91-5.94,4.88-4.68-.02-6.94-1.73-7.63-5.2-.59-2.97,.72-6.23,.72-8.8s-1.53-6.1-.84-9.17c.75-3.33,2.95-4.68,7.84-4.66,5.56,.03,6.88,2.52,5.44,6.73-1.08,3.16-1.22,4.52,.34,4.45,1.01-.04,1.51-.93,1.77-5.02,.24-3.84,1.71-6.39,7.25-6.96,5.37-.55,7.08,.41,7.08,5.05,0,4.38-1.43,6.33-4,6.65-.51,.06-1.52,.1-1.98,.15-1.26,.14-2.11,1.19-2.11,2.5,0,.93,.63,1.5,1.94,1.36,.76-.08,1.6-.35,2.15-.42,2.57-.32,4.17,1.25,4.17,5.25,0,5.06-2.19,6.75-7.17,7.27-4.72,.5-7.18-1.25-7.33-5.93-.11-3.18-1.01-4.41-2.19-4.36-.82,.05-1.2,.69-1.2,1.74Z"/><path class="cls-1" d="M82.01,25.45c-.72,.32-1.14,.71-1.14,1.21,0,.55,.55,.68,1.52,.48,1.01-.22,2.02-.6,2.91-.79,2.44-.52,3.67,1.45,3.67,4.02,0,4.26-1.98,6.54-6.62,7.53s-7.16-.44-7.12-4.28c.02-2.31-.93-3.39-2.49-3.08-1.01,.2-1.26,.76-1.26,1.43,0,1.31,1.56,1.76,1.56,3.65,0,2.36-2.28,4.73-6.03,5.42-4.38,.8-6.97-.24-7.71-3.67-.69-3.18,.04-6.58,.04-9.11s-.75-4.96-.04-8.21c.86-3.98,4.47-6.08,14.08-8.01,10.58-2.12,14.84-.85,14.84,4.93-.02,4.92-2.13,6.68-6.21,8.48Zm-9.4,.48c3.03-.6,4.72-1.68,4.72-3.11,0-1.26-1.14-1.57-4.43-.91-1.69,.34-3.16,.91-3.16,2.64,0,1.3,.63,1.82,2.87,1.38Z"/><path class="cls-1" d="M113.11,19.39c-.72,.28-1.14,.64-1.14,1.14,0,.55,.55,.71,1.52,.57,1.01-.15,2.02-.46,2.91-.57,2.44-.32,3.67,1.79,3.67,4.36,0,4.26-1.98,6.29-6.62,6.97s-7.16-.77-7.12-4.61c.02-2.31-.93-3.42-2.49-3.13-1.01,.19-1.26,.74-1.26,1.42,0,1.31,1.56,1.77,1.56,3.67,0,2.36-2.28,4.67-6.03,5.42-4.38,.88-6.97,.01-7.71-3.37-.69-3.15,.04-6.58,.04-9.11s-.75-4.91-.04-8.21c.87-4.03,4.47-6.54,14.08-8.31,10.58-1.94,14.84,.01,14.84,5.78,0,4.92-2.12,6.44-6.21,7.98Zm-9.4,.11c3.03-.56,4.72-1.56,4.72-2.99,0-1.26-1.14-1.64-4.43-1.03-1.69,.31-3.16,.89-3.16,2.62,.01,1.31,.64,1.81,2.87,1.4Z"/><path class="cls-1" d="M144.22,17.96c-.72,.11-1.14,.37-1.14,.88,0,.55,.55,.84,1.52,.92,1.01,.09,2.02,.03,2.91,.13,2.44,.29,3.67,2.75,3.67,5.32,0,4.26-1.98,5.7-6.62,5.29-4.64-.41-7.16-2.31-7.12-6.15,.02-2.3-.93-3.61-2.49-3.6-1.01,0-1.26,.52-1.26,1.19,0,1.31,1.56,2.06,1.56,3.95,0,2.36-2.28,4.22-6.03,4.41-4.38,.21-6.97-.91-7.71-4.38-.69-3.22,.04-6.58,.04-9.11s-.75-4.99-.04-8.21c.86-3.93,4.47-6.25,14.08-6.22,10.58,.03,14.84,3.38,14.84,9.15-.01,4.92-2.12,5.85-6.21,6.43Zm-9.4-1.85c3.03-.01,4.72-.63,4.72-2.07,0-1.26-1.14-1.9-4.43-1.9-1.69,0-3.16,.34-3.16,2.07,0,1.31,.64,1.91,2.87,1.9Z"/><path class="cls-1" d="M157.24,13.76c3.5,.82,4.68,4.15,6.91,4.87,2.28,.74,2.07-2.29,4.3-1.43,1.73,.66,2.99,2.14,2.99,4.25,0,3.12-1.43,5.72-5.69,4.25-3.63-1.25-4.76-4.47-6.7-4.96-2.23-.57-1.85,2.46-4.34,1.96-1.69-.34-2.95-1.47-2.95-3.54,0-3,1.52-6.33,5.48-5.4Z"/></g><g><path class="cls-2" d="M11.24,27.86C4.29,25.33,.57,22.21,.57,16.1c0-4.93,2.61-6.95,12.77-4.47,10.24,2.5,12.81,4.34,12.81,7.76,0,2.66-1.56,3.91-3.63,3.63-3.08-.42-4.59-2.5-7.55-3.16-1.14-.25-1.69,.07-1.69,.95,0,1.01,1.2,1.77,2.99,2.28,6.46,1.84,10.33,3.47,10.33,9.41s-3.58,9.19-13.91,6.58C3.08,36.66,0,32.47,0,28.72c0-2.4,1.43-3.4,3.96-2.46,3.37,1.25,5.02,3.9,8.18,4.72,.97,.25,1.73,.05,1.73-.88,.02-.97-.75-1.55-2.63-2.24Z"/><path class="cls-2" d="M39.9,32.53c0,1.39,1.69,2.42,1.69,4.49,0,2.82-1.22,4.91-5.94,4.88-4.68-.02-6.94-1.73-7.63-5.2-.59-2.97,.72-6.23,.72-8.8s-1.53-6.1-.84-9.17c.75-3.33,2.95-4.68,7.84-4.66,5.56,.03,6.88,2.52,5.44,6.73-1.08,3.16-1.22,4.52,.34,4.45,1.01-.04,1.51-.93,1.77-5.02,.24-3.84,1.71-6.39,7.25-6.96,5.37-.55,7.08,.41,7.08,5.05,0,4.38-1.43,6.33-4,6.65-.51,.06-1.52,.1-1.98,.15-1.26,.14-2.11,1.19-2.11,2.5,0,.93,.63,1.5,1.94,1.36,.76-.08,1.6-.35,2.15-.42,2.57-.32,4.17,1.25,4.17,5.25,0,5.06-2.19,6.75-7.17,7.27-4.72,.5-7.18-1.25-7.33-5.93-.11-3.18-1.01-4.41-2.19-4.36-.82,.04-1.2,.69-1.2,1.74Z"/><path class="cls-2" d="M82.01,23.07c-.72,.32-1.14,.71-1.14,1.21,0,.55,.55,.68,1.52,.48,1.01-.22,2.02-.6,2.91-.79,2.44-.52,3.67,1.45,3.67,4.02,0,4.26-1.98,6.54-6.62,7.53s-7.16-.44-7.12-4.28c.02-2.31-.93-3.39-2.49-3.08-1.01,.2-1.26,.76-1.26,1.43,0,1.31,1.56,1.76,1.56,3.65,0,2.36-2.28,4.73-6.03,5.42-4.38,.8-6.97-.24-7.71-3.67-.69-3.18,.04-6.58,.04-9.11s-.75-4.96-.04-8.21c.86-3.98,4.47-6.08,14.08-8.01,10.58-2.12,14.84-.85,14.84,4.93-.02,4.92-2.13,6.68-6.21,8.48Zm-9.4,.47c3.03-.6,4.72-1.68,4.72-3.11,0-1.26-1.14-1.57-4.43-.91-1.69,.34-3.16,.91-3.16,2.64,0,1.31,.63,1.83,2.87,1.38Z"/><path class="cls-2" d="M113.11,17.01c-.72,.28-1.14,.64-1.14,1.14,0,.55,.55,.71,1.52,.57,1.01-.15,2.02-.46,2.91-.57,2.44-.32,3.67,1.79,3.67,4.36,0,4.26-1.98,6.29-6.62,6.97s-7.16-.77-7.12-4.61c.02-2.31-.93-3.42-2.49-3.13-1.01,.19-1.26,.74-1.26,1.42,0,1.31,1.56,1.77,1.56,3.67,0,2.36-2.28,4.67-6.03,5.42-4.38,.88-6.97,.01-7.71-3.37-.69-3.15,.04-6.58,.04-9.11s-.75-4.91-.04-8.21c.87-4.03,4.47-6.54,14.08-8.31,10.58-1.94,14.84,.01,14.84,5.78,0,4.92-2.12,6.44-6.21,7.98Zm-9.4,.11c3.03-.56,4.72-1.56,4.72-2.99,0-1.26-1.14-1.64-4.43-1.03-1.69,.31-3.16,.89-3.16,2.62,.01,1.31,.64,1.81,2.87,1.4Z"/><path class="cls-2" d="M144.22,15.58c-.72,.11-1.14,.37-1.14,.88,0,.55,.55,.84,1.52,.92,1.01,.09,2.02,.03,2.91,.13,2.44,.29,3.67,2.75,3.67,5.32,0,4.26-1.98,5.7-6.62,5.29-4.64-.41-7.16-2.31-7.12-6.15,.02-2.3-.93-3.61-2.49-3.6-1.01,0-1.26,.52-1.26,1.19,0,1.31,1.56,2.06,1.56,3.95,0,2.36-2.28,4.22-6.03,4.41-4.38,.21-6.97-.91-7.71-4.38-.69-3.22,.04-6.58,.04-9.11s-.75-4.99-.04-8.21C122.37,2.29,125.98-.03,135.59,0c10.58,.03,14.84,3.38,14.84,9.15-.01,4.92-2.12,5.85-6.21,6.43Zm-9.4-1.85c3.03-.01,4.72-.63,4.72-2.07,0-1.26-1.14-1.9-4.43-1.9-1.69,0-3.16,.34-3.16,2.07,0,1.31,.64,1.91,2.87,1.9Z"/><path class="cls-2" d="M157.24,11.38c3.5,.82,4.68,4.15,6.91,4.87,2.28,.74,2.07-2.29,4.3-1.43,1.73,.66,2.99,2.14,2.99,4.25,0,3.12-1.43,5.72-5.69,4.25-3.63-1.25-4.76-4.47-6.7-4.96-2.23-.57-1.85,2.46-4.34,1.96-1.69-.34-2.95-1.47-2.95-3.54,0-3,1.52-6.33,5.48-5.4Z"/></g></g></g></svg>