<?xml version="1.0" encoding="UTF-8"?><svg id="_이어_2" xmlns="http://www.w3.org/2000/svg" viewBox="0 0 171.93 42.41"><defs><style>.cls-1{fill:#fff;}</style></defs><g id="_이어_1-2"><g><path class="cls-1" d="M19.14,40.48c-1.79,0-3.88-.3-6.26-.9C1.68,36.75,0,31.73,0,28.98c0-1.24,.37-2.16,1.08-2.65,.76-.53,1.87-.55,3.22-.05,1.64,.61,2.87,1.53,4.05,2.42,1.28,.96,2.49,1.87,4.1,2.29,.54,.14,.96,.12,1.19-.06,.15-.12,.22-.3,.22-.58,0-.81-.65-1.33-2.49-2C3.68,25.55,.54,22.07,.54,16.35c0-2.26,.55-3.74,1.72-4.66,1.88-1.47,5.49-1.49,11.36-.06,9.97,2.43,13,4.3,13,8,0,1.39-.41,2.49-1.2,3.17-.7,.61-1.63,.85-2.71,.71-1.69-.23-2.93-.95-4.14-1.65-1.03-.6-2.09-1.21-3.43-1.51-.55-.12-.95-.1-1.16,.07-.15,.12-.22,.33-.22,.64,0,1.02,1.53,1.67,2.81,2.04,6.35,1.81,10.51,3.45,10.51,9.65,0,2.83-.83,4.92-2.48,6.2-1.29,1.02-3.12,1.53-5.46,1.53ZM2.53,26.42c-.46,0-.85,.11-1.16,.32-.57,.4-.87,1.17-.87,2.24,0,2.6,1.62,7.37,12.5,10.12,5.32,1.34,9.13,1.16,11.32-.54,1.52-1.18,2.28-3.13,2.28-5.8,0-5.86-3.83-7.37-10.15-9.17-2.11-.6-3.17-1.45-3.17-2.52,0-.47,.14-.81,.41-1.03,.34-.27,.86-.33,1.58-.17,1.42,.32,2.51,.95,3.57,1.57,1.21,.71,2.36,1.37,3.95,1.59,.93,.13,1.73-.08,2.32-.59,.67-.59,1.03-1.55,1.03-2.79,0-3-1.89-4.89-12.62-7.51-5.72-1.4-9.19-1.41-10.94-.04-1.04,.82-1.53,2.17-1.53,4.26,0,5.54,2.94,8.78,10.5,11.53h0c1.79,.65,2.82,1.26,2.82,2.47,0,.54-.23,.83-.42,.97-.36,.28-.92,.33-1.62,.15-1.7-.44-2.95-1.38-4.27-2.37-1.16-.87-2.36-1.77-3.93-2.35-.6-.23-1.14-.34-1.6-.34Z"/><path class="cls-1" d="M35.95,42.41h-.08c-4.65-.03-7.15-1.74-7.87-5.4-.37-1.86-.02-3.77,.31-5.62,.21-1.15,.4-2.24,.4-3.22s-.23-2.15-.47-3.35c-.39-1.94-.8-3.95-.37-5.87,.77-3.44,3.08-4.85,7.97-4.85h.12c2.83,0,4.66,.65,5.57,1.93,.84,1.18,.88,2.86,.1,5.13-.58,1.7-1.07,3.35-.66,3.89,.13,.17,.37,.25,.75,.23,.8-.03,1.28-.81,1.53-4.79,.21-3.36,1.27-6.56,7.47-7.19,3.24-.33,4.99-.08,6.05,.88,.91,.82,1.31,2.18,1.31,4.42,0,4.29-1.38,6.55-4.22,6.9-.28,.04-.71,.06-1.11,.09-.34,.02-.66,.04-.87,.06-1.11,.13-1.89,1.05-1.89,2.25,0,.36,.11,.64,.32,.83,.28,.25,.74,.34,1.34,.28,.41-.05,.85-.15,1.25-.24,.33-.08,.64-.15,.9-.18,1.21-.15,2.21,.1,2.95,.76,1,.88,1.51,2.48,1.51,4.74,0,4.91-2,6.95-7.39,7.52-2.6,.27-4.48-.12-5.73-1.22-1.19-1.03-1.8-2.65-1.88-4.96-.08-2.4-.61-3.38-1.05-3.79-.26-.24-.55-.35-.88-.33-.62,.02-.94,.52-.94,1.48,0,.56,.32,1.07,.68,1.66,.47,.76,1,1.63,1,2.83,0,1.63-.41,2.82-1.25,3.66-1,.99-2.59,1.47-4.87,1.47Zm-.11-27.82c-4.66,0-6.76,1.26-7.48,4.46-.41,1.82,0,3.77,.37,5.66,.25,1.23,.48,2.39,.48,3.45s-.2,2.14-.41,3.31c-.32,1.81-.66,3.67-.31,5.44,.68,3.43,2.96,4.97,7.39,5h.08c2.14,0,3.61-.43,4.51-1.33,.74-.73,1.1-1.81,1.1-3.3,0-1.06-.47-1.83-.93-2.57-.39-.63-.76-1.22-.76-1.92,0-1.67,.89-1.96,1.42-1.98,.47-.02,.89,.14,1.24,.47,.73,.68,1.14,2.07,1.21,4.14,.07,2.16,.63,3.66,1.71,4.59,1.15,1,2.9,1.36,5.35,1.1,5.13-.54,6.94-2.38,6.94-7.02,0-2.11-.45-3.58-1.34-4.37-.63-.55-1.49-.77-2.55-.64-.23,.03-.53,.1-.85,.17-.41,.09-.87,.2-1.31,.25-.76,.08-1.34-.05-1.73-.4-.32-.28-.49-.7-.49-1.2,0-1.46,.96-2.59,2.33-2.75,.22-.02,.55-.04,.89-.07,.4-.02,.81-.05,1.08-.08,2.58-.32,3.79-2.35,3.79-6.4,0-2.08-.35-3.33-1.15-4.05-.94-.85-2.58-1.06-5.66-.75-5.51,.56-6.8,3.09-7.03,6.73-.25,3.97-.72,5.2-2.01,5.25-.56,.01-.94-.12-1.17-.43-.52-.69-.18-2.12,.59-4.35,.72-2.1,.71-3.63-.03-4.67-.81-1.13-2.54-1.71-5.17-1.72-.03-.02-.07-.02-.1-.02Z"/><path class="cls-1" d="M64.73,39.42c-3.06,0-4.86-1.36-5.46-4.12-.48-2.2-.29-4.5-.12-6.53,.08-.94,.15-1.84,.15-2.63s-.08-1.58-.16-2.42c-.17-1.7-.36-3.62,.13-5.85,.9-4.12,4.63-6.27,14.27-8.2,7.09-1.42,11.19-1.28,13.33,.47,1.22,1,1.81,2.54,1.81,4.71,0,5.01-2.14,6.87-6.34,8.72-.67,.3-.99,.62-.99,.98,0,.13,.04,.19,.08,.22,.08,.06,.34,.19,1.13,.02,.51-.11,1.03-.27,1.53-.42,.48-.15,.94-.28,1.38-.38,1-.22,1.89-.04,2.57,.51,.9,.73,1.4,2.06,1.4,3.76,0,4.37-2.1,6.77-6.82,7.77-2.69,.58-4.7,.35-5.95-.68-1-.81-1.49-2.11-1.48-3.85,.01-1.24-.26-2.12-.79-2.56-.35-.29-.82-.38-1.39-.27-.93,.19-1.06,.68-1.06,1.19s.29,.88,.62,1.31c.44,.57,.94,1.22,.94,2.34,0,2.66-2.56,4.99-6.23,5.66-.93,.16-1.78,.25-2.55,.25Zm16.71-30.23c-2.04,0-4.6,.32-7.79,.96-9.41,1.89-13.04,3.94-13.88,7.82-.47,2.15-.29,3.95-.12,5.69,.08,.85,.16,1.66,.16,2.47s-.08,1.72-.16,2.68c-.17,1.99-.35,4.25,.11,6.38,.69,3.18,3.05,4.28,7.42,3.48,3.43-.63,5.82-2.76,5.82-5.17,0-.95-.43-1.5-.84-2.04-.36-.46-.72-.94-.72-1.62,0-.93,.48-1.48,1.47-1.68,.71-.14,1.34-.01,1.81,.38,.65,.54,.99,1.56,.98,2.95-.01,1.58,.42,2.75,1.29,3.46,1.13,.92,2.99,1.11,5.53,.57,4.5-.96,6.42-3.14,6.42-7.28,0-1.52-.44-2.74-1.21-3.37-.56-.46-1.29-.59-2.15-.41-.42,.09-.86,.22-1.34,.37-.51,.15-1.04,.31-1.57,.43-.75,.16-1.26,.12-1.55-.12-.12-.1-.27-.29-.27-.61,0-.58,.42-1.05,1.29-1.44h0c4.1-1.8,6.05-3.5,6.05-8.26,0-2.01-.53-3.42-1.63-4.32-1.09-.88-2.74-1.32-5.12-1.32Zm-9.94,15.02c-.56,0-.97-.12-1.26-.36-.36-.29-.52-.75-.52-1.43,0-1.95,1.7-2.56,3.36-2.89,2.37-.47,3.64-.46,4.27,.06,.31,.25,.46,.61,.46,1.1,0,1.08-.85,2.55-4.92,3.36-.55,.11-1,.16-1.39,.16Zm4.3-4.52c-.64,0-1.51,.11-2.62,.33-2.1,.42-2.96,1.12-2.96,2.4,0,.52,.11,.85,.34,1.04,.35,.29,1.08,.32,2.23,.09h0c2.92-.58,4.52-1.6,4.52-2.87,0-.33-.09-.56-.27-.71-.24-.18-.64-.28-1.24-.28Z"/><path class="cls-1" d="M95.52,33.06c-2.91,0-4.56-1.27-5.14-3.89-.48-2.18-.29-4.49-.12-6.52,.08-.95,.15-1.85,.15-2.64s-.08-1.57-.16-2.41c-.17-1.69-.36-3.6,.12-5.86,.93-4.35,5.07-6.81,14.28-8.5,6.7-1.23,10.88-.93,13.14,.96,1.34,1.12,1.99,2.77,1.99,5.07,0,4.96-2.05,6.61-6.36,8.22-.98,.38-.98,.78-.98,.91,0,.14,.05,.2,.09,.23,.1,.08,.37,.2,1.14,.09,.49-.07,.99-.18,1.47-.29,.51-.11,.98-.22,1.44-.28,.98-.13,1.86,.11,2.53,.7,.9,.79,1.42,2.22,1.42,3.91,0,4.35-2.04,6.51-6.83,7.22-2.73,.4-4.74,.06-5.97-1.01-.97-.85-1.45-2.14-1.44-3.85,.01-1.25-.27-2.14-.8-2.59-.36-.3-.82-.4-1.39-.29-.93,.17-1.06,.67-1.06,1.17s.29,.88,.62,1.32c.44,.58,.94,1.23,.94,2.35,0,2.6-2.56,4.93-6.23,5.67-1.05,.21-2,.31-2.85,.31ZM111.46,3.02c-1.88,0-4.11,.24-6.72,.72-11.1,2.04-13.23,5.1-13.88,8.11-.47,2.18-.29,3.97-.12,5.7,.08,.85,.16,1.65,.16,2.46s-.08,1.73-.16,2.69c-.17,2-.35,4.27,.11,6.38,.68,3.09,2.97,4.08,7.42,3.18,3.43-.69,5.83-2.82,5.83-5.18,0-.95-.43-1.51-.84-2.05-.36-.46-.72-.95-.72-1.62,0-.93,.48-1.48,1.47-1.66,.71-.13,1.33,0,1.8,.4,.66,.55,1,1.58,.98,2.98-.01,1.56,.41,2.73,1.27,3.47,1.11,.97,2.99,1.27,5.57,.89,4.55-.67,6.4-2.62,6.4-6.72,0-1.55-.46-2.83-1.25-3.53-.57-.5-1.29-.69-2.13-.58-.44,.06-.9,.16-1.4,.27-.49,.11-1,.22-1.51,.3-.75,.11-1.25,.04-1.54-.21-.17-.15-.26-.36-.26-.61,0-.59,.42-1.04,1.3-1.38h0c4.17-1.57,6.03-3.06,6.03-7.75,0-2.14-.59-3.67-1.81-4.68-1.24-1.06-3.23-1.58-6-1.58Zm-8.81,14.75c-.59,0-1.01-.12-1.3-.37-.35-.29-.51-.74-.51-1.42,0-1.99,1.8-2.58,3.37-2.87,2.3-.43,3.62-.38,4.25,.15,.31,.26,.47,.64,.47,1.13,0,1.54-1.66,2.63-4.92,3.23-.55,.1-.99,.15-1.36,.15Zm4.09-4.45c-.63,0-1.44,.09-2.45,.28-2.1,.39-2.96,1.08-2.96,2.38,0,.52,.11,.85,.33,1.04,.35,.29,1.08,.33,2.24,.11h0c2.06-.38,4.52-1.17,4.52-2.74,0-.34-.09-.58-.29-.74-.26-.22-.72-.33-1.39-.33Z"/><path class="cls-1" d="M146.19,28.7c-.44,0-.92-.02-1.42-.07-4.91-.43-7.39-2.59-7.35-6.41,0-1.27-.28-2.24-.84-2.8-.36-.37-.83-.55-1.39-.55h0c-.84,0-1.02,.38-1.02,.94,0,.52,.29,.95,.63,1.45,.44,.65,.93,1.39,.93,2.5,0,2.6-2.52,4.47-6.27,4.66-4.79,.23-7.24-1.18-7.97-4.58-.48-2.23-.29-4.52-.12-6.53,.08-.94,.15-1.83,.15-2.63s-.08-1.58-.16-2.42c-.17-1.7-.36-3.64,.13-5.84C122.46,1.96,126.89,0,135.8,0c10.15,.03,15.09,3.11,15.09,9.4,0,4.94-1.98,6.06-6.41,6.68-.92,.14-.92,.5-.92,.63,0,.37,.43,.6,1.29,.67,.47,.04,.94,.05,1.4,.06,.53,0,1.04,.02,1.52,.08,2.69,.32,3.89,3.03,3.89,5.57,0,2.07-.48,3.52-1.45,4.41-.89,.81-2.18,1.2-4.02,1.2Zm-11.01-10.33c.69,0,1.29,.24,1.75,.7,.66,.66,1,1.75,.98,3.16-.03,3.56,2.22,5.49,6.9,5.9,2.47,.22,4.07-.1,5.05-1,.87-.79,1.29-2.12,1.29-4.04,0-2.32-1.07-4.78-3.45-5.07-.46-.05-.95-.06-1.47-.07-.47,0-.95-.02-1.44-.06-1.16-.1-1.75-.5-1.75-1.17,0-.61,.45-.99,1.35-1.13h0c4.22-.6,5.98-1.59,5.98-6.19,0-5.96-4.77-8.87-14.59-8.9h-.17c-10.93,0-13.05,3.22-13.66,6.02-.47,2.13-.29,3.94-.12,5.69,.08,.85,.16,1.66,.16,2.47s-.08,1.72-.16,2.67c-.17,1.98-.35,4.23,.11,6.39,.68,3.16,2.9,4.41,7.46,4.19,3.46-.17,5.79-1.84,5.79-4.16,0-.96-.43-1.6-.85-2.22-.37-.55-.71-1.06-.71-1.73,.03-.96,.54-1.44,1.55-1.45h0Zm-.17-4.13c-1.31,0-2.11-.21-2.57-.67-.34-.34-.5-.81-.5-1.47,0-2.07,1.95-2.32,3.41-2.32h.02c1.66,0,2.78,.16,3.53,.5,.76,.34,1.13,.88,1.13,1.65,0,1.55-1.63,2.31-4.97,2.32h0s-.04-.01-.05-.01Zm.36-3.96h-.02c-2.04,0-2.91,.55-2.91,1.82,0,.53,.11,.88,.35,1.12,.36,.36,1.07,.53,2.22,.53h.04c2.97,0,4.47-.62,4.47-1.82,0-.56-.26-.93-.83-1.2-.67-.31-1.75-.45-3.32-.45Z"/><path class="cls-1" d="M168.2,24.25c-.68,0-1.45-.15-2.29-.44-2.1-.73-3.4-2.1-4.45-3.21-.78-.83-1.46-1.55-2.24-1.75-.94-.24-1.32,.23-1.79,.83-.5,.63-1.12,1.42-2.54,1.13-2-.41-3.15-1.78-3.15-3.78,0-2.14,.73-4,1.96-4.98,1.01-.8,2.29-1.02,3.83-.67h0c2.07,.48,3.35,1.8,4.47,2.97,.84,.87,1.56,1.61,2.46,1.91,.98,.32,1.4-.15,1.9-.68,.53-.58,1.13-1.24,2.42-.74,1.97,.76,3.15,2.43,3.15,4.48,0,1.42-.29,3.33-1.68,4.32-.56,.41-1.25,.61-2.05,.61Zm-9.44-5.96c.18,0,.37,.02,.59,.08,.92,.24,1.64,1,2.48,1.89,1.06,1.12,2.26,2.4,4.25,3.08,1.68,.58,2.99,.54,3.89-.1,.94-.67,1.47-2.06,1.47-3.91s-1.03-3.32-2.83-4.02c-.96-.37-1.36,.06-1.87,.61-.5,.55-1.13,1.24-2.42,.82-1.02-.33-1.82-1.16-2.67-2.03-1.08-1.12-2.3-2.38-4.23-2.83-1.38-.32-2.52-.13-3.4,.57-1.11,.88-1.77,2.59-1.77,4.58,0,2.38,1.72,3.08,2.75,3.29,1.12,.22,1.55-.32,2.05-.95,.4-.51,.85-1.08,1.71-1.08Z"/></g></g></svg>